<svg xmlns="http://www.w3.org/2000/svg" viewBox="0 0 494 90" width="494" height="90">

<g transform="translate(0,0)"><defs><linearGradient id="gLockDark" x1="0" y1="0" x2="1" y2="1">
    <stop offset="0" stop-color="#33E0C7"/><stop offset="1" stop-color="#3D6CF2"/>
    </linearGradient></defs>

<line x1="22" y1="30" x2="42" y2="16" stroke="url(#gLockDark)" stroke-width="1.6" stroke-linecap="round" opacity="0.9"/>
<line x1="22" y1="30" x2="42" y2="44" stroke="url(#gLockDark)" stroke-width="1.6" stroke-linecap="round" opacity="0.9"/>
<line x1="42" y1="16" x2="42" y2="44" stroke="url(#gLockDark)" stroke-width="1.6" stroke-linecap="round" opacity="0.9"/>
<line x1="42" y1="44" x2="22" y2="58" stroke="url(#gLockDark)" stroke-width="1.6" stroke-linecap="round" opacity="0.9"/>
<line x1="42" y1="16" x2="62" y2="30" stroke="url(#gLockDark)" stroke-width="1.6" stroke-linecap="round" opacity="0.9"/>
<circle cx="22" cy="30" r="4.5" fill="#33E0C7"/>
<circle cx="42" cy="16" r="4.5" fill="#3D6CF2"/>
<circle cx="42" cy="44" r="4.5" fill="#3D6CF2"/>
<circle cx="22" cy="58" r="4.5" fill="#33E0C7"/>
<circle cx="62" cy="30" r="4.5" fill="#33E0C7"/></g>
<g fill="#EAF6FF" transform="translate(118,76.0) scale(0.08857142857142856)">
<g transform="translate(0,0) scale(1,-1)"><path d="M438 323 444 525H435L300 166L165 525H156L162 323V0H48V698H204L301 441H308L406 698H552V0H438Z"/></g>
<g transform="translate(600,0) scale(1,-1)"><path d="M312 -12Q250 -12 202.0 7.0Q154 26 121.5 61.0Q89 96 72.0 145.5Q55 195 55 257Q55 320 72.5 370.0Q90 420 122.0 455.0Q154 490 199.5 509.0Q245 528 302 528Q358 528 403.0 509.5Q448 491 479.5 457.0Q511 423 528.0 375.0Q545 327 545 269V227H183V214Q183 158 218.0 123.5Q253 89 316 89Q364 89 398.5 108.5Q433 128 456 160L529 87Q501 46 447.5 17.0Q394 -12 312 -12ZM303 434Q249 434 216.0 400.0Q183 366 183 310V303H417V312Q417 368 386.5 401.0Q356 434 303 434Z"/></g>
<g transform="translate(1200,0) scale(1,-1)"><path d="M320 -12Q261 -12 214.0 7.0Q167 26 134.5 61.0Q102 96 84.5 146.0Q67 196 67 258Q67 320 84.5 370.0Q102 420 134.5 455.0Q167 490 213.5 509.0Q260 528 319 528Q401 528 451.0 494.0Q501 460 527 404L428 350Q414 383 388.5 403.5Q363 424 319 424Q262 424 231.5 391.0Q201 358 201 301V215Q201 159 231.5 125.5Q262 92 321 92Q367 92 394.5 113.0Q422 134 439 169L535 112Q509 57 456.5 22.5Q404 -12 320 -12Z"/></g>
<g transform="translate(1800,0) scale(1,-1)"><path d="M300 -12Q241 -12 194.5 7.0Q148 26 115.5 61.0Q83 96 65.5 146.0Q48 196 48 258Q48 320 65.5 370.0Q83 420 115.5 455.0Q148 490 194.5 509.0Q241 528 300 528Q358 528 405.0 509.0Q452 490 484.5 455.0Q517 420 534.5 370.0Q552 320 552 258Q552 196 534.5 146.0Q517 96 484.5 61.0Q452 26 405.0 7.0Q358 -12 300 -12ZM300 86Q355 86 387.0 119.5Q419 153 419 218V298Q419 363 387.0 396.5Q355 430 300 430Q245 430 213.0 396.5Q181 363 181 298V218Q181 153 213.0 119.5Q245 86 300 86Z"/></g>
<g transform="translate(2400,0) scale(1,-1)"><path d="M403 91H396Q375 44 338.5 16.0Q302 -12 242 -12Q198 -12 161.5 4.5Q125 21 99.0 54.5Q73 88 59.0 139.0Q45 190 45 258Q45 394 99.0 461.0Q153 528 242 528Q302 528 338.5 500.0Q375 472 396 425H403V740H531V0H403ZM296 90Q318 90 337.5 95.5Q357 101 371.5 111.5Q386 122 394.5 138.5Q403 155 403 177V339Q403 361 394.5 377.5Q386 394 371.5 404.5Q357 415 337.5 420.5Q318 426 296 426Q240 426 209.5 392.0Q179 358 179 299V217Q179 158 209.5 124.0Q240 90 296 90Z"/></g>
<g transform="translate(3000,0) scale(1,-1)"><path d="M312 -12Q250 -12 202.0 7.0Q154 26 121.5 61.0Q89 96 72.0 145.5Q55 195 55 257Q55 320 72.5 370.0Q90 420 122.0 455.0Q154 490 199.5 509.0Q245 528 302 528Q358 528 403.0 509.5Q448 491 479.5 457.0Q511 423 528.0 375.0Q545 327 545 269V227H183V214Q183 158 218.0 123.5Q253 89 316 89Q364 89 398.5 108.5Q433 128 456 160L529 87Q501 46 447.5 17.0Q394 -12 312 -12ZM303 434Q249 434 216.0 400.0Q183 366 183 310V303H417V312Q417 368 386.5 401.0Q356 434 303 434Z"/></g>
<g transform="translate(3600,0) scale(1,-1)"><path d="M34 0 227 262 45 516H192L254 425L302 353H309L357 425L419 516H555L373 268L566 0H418L347 104L298 177H291L242 104L171 0Z"/></g>
</g>
</svg>